<svg id="Layer_1" data-name="Layer 1" xmlns="http://www.w3.org/2000/svg" width="255.71" height="67.69" viewBox="0 0 255.71 67.69"><defs><style>.cls-1{fill:#231f20;}</style></defs><title>SA-logo®</title><path class="cls-1" d="M16.26,12.22C11.51,10.61,9,9.51,9,6.24c0-2.46,2.28-3.89,4.77-3.89,4.59,0,7.16,3.12,8.19,8.29h1.11v-9h-1l-1.28,2.8H20.72a8.78,8.78,0,0,0-6.9-3.29C8.89,1.18,5,4.62,5,9,5,14.47,9,16.67,14,18.29c4.66,1.49,6.63,3.19,6.63,5.92,0,3.44-1.64,4.93-5.61,4.93A7.94,7.94,0,0,1,8.81,26.4a13.73,13.73,0,0,1-2.87-6.86H4.84V29.89h0.9l1.64-3.1H7.51A9.64,9.64,0,0,0,15,30.32c6.07,0,9.76-3.87,9.76-8.89S21.22,13.9,16.26,12.22Z" transform="translate(-2.29 -1.14)"/><path class="cls-1" d="M249.46,4.92a8.7,8.7,0,0,0-7.39-3.77c-8.25,0-13.81,6.73-13.81,14.66S233.55,30.47,242,30.47c5.45,0,9.45-2.81,10.66-9.25l-1.17-.34c-1.13,5.26-3.93,8.3-8.79,8.3-5.15,0-7.88-4.13-7.88-13.38s2.45-13.45,7.26-13.45,7.68,3.27,9,10.1h1.28V1.63h-0.74l-2.11,3.29h-0.08Z" transform="translate(-2.29 -1.14)"/><path class="cls-1" d="M50,4.77a8.27,8.27,0,0,0-7.21-3.63C34.54,1.14,29,7.87,29,15.8s5.29,14.67,13.77,14.67c5.45,0,9.44-2.81,10.66-9.25L52.24,21c-1.39,5.11-3.61,8.15-8.79,8.15S35.57,25,35.57,15.8s2.56-13.45,7-13.45c4.72,0,7.67,3.27,9,10.1h1.06V1.63h-1L50.09,4.77H50Z" transform="translate(-2.29 -1.14)"/><polygon class="cls-1" points="68.06 27.6 63.86 27.6 63.86 1.6 68.06 1.6 68.06 0.47 53.78 0.47 53.78 1.6 57.98 1.6 57.98 27.6 53.78 27.6 53.78 28.76 68.06 28.76 68.06 27.6"/><polygon class="cls-1" points="163.92 27.6 163.92 28.76 178.2 28.76 178.2 27.6 174 27.6 174 1.6 178.2 1.6 178.2 0.47 163.92 0.47 163.92 1.6 168.12 1.6 168.12 27.6 163.92 27.6"/><polygon class="cls-1" points="209.12 1.6 213.32 1.6 213.32 27.6 209.12 27.6 209.12 28.76 223.4 28.76 223.4 27.6 219.21 27.6 219.21 1.6 223.4 1.6 223.4 0.47 209.12 0.47 209.12 1.6"/><path class="cls-1" d="M100.35,19.36H99.69A20,20,0,0,1,96,26.69c-1.6,1.84-3.17,2-6.15,2H85.37V16.27h2.13a4.71,4.71,0,0,1,3.65,1.18,6.76,6.76,0,0,1,1.7,4.69h0.77V9.22H92.85a7.59,7.59,0,0,1-1.72,4.7c-0.78.86-2,1.17-3.64,1.17H85.37V2.75h5.07c2.37,0,4,.59,5,1.55,1.68,1.4,2.76,3.32,3.8,7h0.67V1.61H75.28V2.75h4.2v26h-4.2V29.9h25.07V19.36Z" transform="translate(-2.29 -1.14)"/><path class="cls-1" d="M110.71,5.88l17.8,24h1.83V5.17c0-1.6.69-2.43,2.1-2.43h1.85V1.61H124.9V2.75h1.9c1.43,0,2.11.84,2.11,2.43V21.1h-0.12L114.64,1.61H104V2.75h1.18a3.93,3.93,0,0,1,3.21,1.19,2.47,2.47,0,0,1,.87,1.81V26.18c0,1.54-.64,2.56-2.1,2.56H105V29.9h10.15V28.73h-2.38c-1.42,0-2.09-1.09-2.09-2.56V5.88h0.07Z" transform="translate(-2.29 -1.14)"/><path class="cls-1" d="M141.49,4.5a5.3,5.3,0,0,1,4.05-1.69h1V28.74h-4.31V29.9h14.49V28.74h-4.3V2.81h0.8a5.63,5.63,0,0,1,4.26,1.64c1.64,1.54,2.62,3.89,3.51,7.4h1.11V1.61H136.9V11.76H138C138.9,8.26,139.89,6.07,141.49,4.5Z" transform="translate(-2.29 -1.14)"/><path class="cls-1" d="M184.63,28.74V29.9H199V28.74h-4.26V16.15h1.78a4.42,4.42,0,0,1,3.3,1.21,6.85,6.85,0,0,1,1.8,4.72h1.22v-13H201.6A7.44,7.44,0,0,1,200,13.62,4.57,4.57,0,0,1,196.5,15h-1.78V2.73h4.13c2.48,0,4,.52,5.22,1.73s2.46,3.28,3.55,6.9h1.06V1.61h-24V2.72h4.2v26h-4.2Z" transform="translate(-2.29 -1.14)"/><path class="cls-1" d="M175.87,67.44a9.24,9.24,0,0,1-4.62-1.08C168.4,64.57,167,60.57,167,54.06c0-6.78,1.25-10.25,3.65-12.12a8.2,8.2,0,0,1,4.59-1.34c4.53,0,9.21,2.88,10.45,10.1h1.15V39.89h-1l-2,3.51h-0.08c-1.38-2-5-4-8.61-4a14.77,14.77,0,0,0-14.78,14.66c0,7.92,6.13,14.66,15.24,14.66,5.44,0,10.25-2.8,11.47-9.25l-1.22-.34C184.81,64.4,181.54,67.44,175.87,67.44Z" transform="translate(-2.29 -1.14)"/><polygon class="cls-1" points="139.97 40.05 144.28 40.05 144.28 66.05 139.97 66.05 139.97 67.17 154.46 67.17 154.46 66.05 150.16 66.05 150.16 40.05 154.46 40.05 154.46 38.92 139.97 38.92 139.97 40.05"/><path class="cls-1" d="M241.52,41.19h2.36c1.43,0,2.1.84,2.1,2.43v16.1h-0.12L230.35,40.06H219.89v1.13h1.17a3.91,3.91,0,0,1,3,1.11,2.65,2.65,0,0,1,.88,1.89V64.62c0,1.53-.64,2.55-2.1,2.55h-2.39v1.14h10.37V67.17h-2.38c-1.41,0-2.08-1.09-2.08-2.55V44.32h0.07l19.15,24.25h1.83v-25c0-1.6.69-2.43,2.11-2.43h2.29V40.06H241.52v1.13Z" transform="translate(-2.29 -1.14)"/><path class="cls-1" d="M96.82,64.72c-1.61,1.83-3.49,2.44-6.47,2.44h-5V54.7h2.17a4.7,4.7,0,0,1,3.65,1.18,6.81,6.81,0,0,1,1.7,4.72h1.22v-13H92.91a7.52,7.52,0,0,1-1.72,4.72c-0.76.87-2,1.17-3.64,1.17H85.39V41.18h5.32a7.31,7.31,0,0,1,5.11,1.57c1.68,1.4,2.81,3.31,3.84,7h1.09v-9.7H75.16v1.13H79.5v26H75.16v1.13h26.18V57.84h-0.65A17.26,17.26,0,0,1,96.82,64.72Z" transform="translate(-2.29 -1.14)"/><path class="cls-1" d="M53.15,59.51H52.82l-8-19.45H33.45v1.13H38V64.5c0,1.64-.7,2.65-2.14,2.67H33.48v1.15H44V67.17H41.57c-1.4,0-2.09-1.1-2.09-2.67V42.29H39.6L50.06,68.41H51.2l9.42-26.12h0.11V67.18H56.47v1.13H70.94V67.18H66.59v-26H71V40.06H60.1Z" transform="translate(-2.29 -1.14)"/><path class="cls-1" d="M117.51,41.19h4.4a7.54,7.54,0,0,1,3.37.7c1.67,0.94,2.26,2.67,2.26,5.13s-0.58,4.31-2.07,5.31a6,6,0,0,1-3.26.76h-4.7V41.19Zm17.84,25.64a1.83,1.83,0,0,1-2.08-1.58,31.61,31.61,0,0,1-.58-4.29c-0.42-4.35-3.21-6.11-7.19-6.86V54c5-.42,8.07-3,8.07-7,0-4.36-3.23-6.94-10.44-6.94H107.3v1.13h4.32v26H107.3v1.13h14.38V67.18h-4.17V54.29H122c2.7,0,4.36,1.15,4.49,4.32,0,0.26.15,3.39,0.17,3.65,0.21,4.54,2.72,6.57,6.19,6.57,4.38,0,6.13-2,6.17-6.18l-1.23,0C137.78,65.58,136.87,66.83,135.35,66.83Z" transform="translate(-2.29 -1.14)"/><path class="cls-1" d="M10.41,58.31l4.13-11h0.13l4,11H10.41Zm19.21,8.86c-1.27,0-1.69-.71-2.23-2.16L18,40H16L6.81,64.09C6,66,5.44,67.17,3.65,67.17H2.29v1.15h9.06V67.17H9.42c-1.81,0-1.82-1.41-1.14-3.21L10,59.49h9.12l2.06,5.68c0.4,1.18.57,2-.84,2H18.1v1.15H31.57V67.17H29.62Z" transform="translate(-2.29 -1.14)"/><path class="cls-1" d="M196.83,58.31l4.13-11h0.13l4,11h-8.25ZM216,67.17c-1.27,0-1.69-.71-2.23-2.16l-9.37-25h-2l-9.18,24.07c-0.76,1.95-1.37,3.08-3.16,3.08h-1.36v1.15h9.06V67.17h-1.93c-1.81,0-1.81-1.41-1.13-3.21l1.68-4.46h9.12l2.06,5.68c0.4,1.18.57,2-.85,2h-2.2v1.15H218V67.17H216Z" transform="translate(-2.29 -1.14)"/><path class="cls-1" d="M253.89,68.83a4.25,4.25,0,0,1-1.65-.31,4,4,0,0,1-1.29-.85,3.8,3.8,0,0,1-.84-1.3,4.71,4.71,0,0,1-.32-1.64,4.27,4.27,0,0,1,.29-1.56,4,4,0,0,1,.82-1.31,3.89,3.89,0,0,1,1.3-.9,4.21,4.21,0,0,1,1.7-.33,4.15,4.15,0,0,1,1.64.32,4.07,4.07,0,0,1,1.3.87,4,4,0,0,1,.85,1.3,4.21,4.21,0,0,1,.31,1.62,4.44,4.44,0,0,1-.29,1.6,3.76,3.76,0,0,1-2.12,2.19A4.33,4.33,0,0,1,253.89,68.83Zm0-.78a3.64,3.64,0,0,0,1.36-.24,3,3,0,0,0,1-.69,3.18,3.18,0,0,0,.68-1.05,3.59,3.59,0,0,0,.24-1.34,3.32,3.32,0,0,0-.24-1.26,3.48,3.48,0,0,0-.68-1.07,3.09,3.09,0,0,0-1-.73,3.37,3.37,0,0,0-1.36-.27,3.51,3.51,0,0,0-1.36.26,3.14,3.14,0,0,0-1,.7,3.18,3.18,0,0,0-.68,1.05,3.68,3.68,0,0,0,0,2.61,3.15,3.15,0,0,0,1.71,1.78A3.43,3.43,0,0,0,253.89,68.05Zm-1.42-5.48h1.76a1.49,1.49,0,0,1,1,.31,1.08,1.08,0,0,1,.35.86,1.22,1.22,0,0,1-.9,1.27v0.06l1.15,1.74v0.06h-1l-1.17-1.78h-0.34v1.78h-0.88V62.58ZM254,64.44a0.58,0.58,0,0,0,.67-0.65,0.42,0.42,0,0,0-.2-0.4,0.93,0.93,0,0,0-.47-0.11h-0.71v1.17H254Z" transform="translate(-2.29 -1.14)"/></svg>